<svg width="137" height="128" viewBox="0 0 137 128" fill="none" xmlns="http://www.w3.org/2000/svg">
<path d="M56 55.6521L1.39711e-05 55.6521C1.00929 34.5486 11.6075 16.0412 27.4024 4.65214L56 55.6521Z" fill="#BB19F3"/>
<path opacity="0.6" d="M8.99989 68.6521C10.4923 88.638 21.2822 106.054 37.0903 116.652L64.9999 68.6522L8.99989 68.6521Z" fill="white"/>
<path d="M136.174 59.8261C134.511 26.5089 106.615 1.11761e-05 72.446 5.20176e-06C61.7021 3.32323e-06 51.5784 2.62086 42.6954 7.25015L73.4508 59.8261L136.174 59.8261Z" fill="white"/>
<path opacity="0.8" d="M74.0313 127.652C63.946 127.652 54.4218 125.186 45.9999 120.809L75.337 68.6521L136 68.6522C133.617 101.645 106.783 127.652 74.0313 127.652Z" fill="white"/>
</svg>
